<svg xmlns="http://www.w3.org/2000/svg" xmlns:xlink="http://www.w3.org/1999/xlink" viewBox="0 0 495 619">
  <g id="Tap2">
    <path d="M495,619H0Q-.25,424.26-.5,229.5h495Q494.76,424.25,495,619ZM273.18,475.87c-1-3.06-1-5.2,0-17.33,1.37-15.65,2-23.47,2.95-28.9,3.71-22.64,8.23-57.92,11.73-85.21,8.51-66.52,5.23-85-5.58-99.71a63.14,63.14,0,0,0-13-13c-8.44-.26-25.29.1-25.29.1l-22,.62a63,63,0,0,0-13,13c-10.84,14.67-14.16,33.15-5.78,99.69,3.44,27.3,7.89,62.6,11.56,85.24.88,5.43,1.55,13.25,2.89,28.89,1,12.14,1,14.29,0,17.34-2.62,8-7.85,10.17-14.45,21.67a79.52,79.52,0,0,0-5.06,10.59v4.58h49.13l45.22-.68v-4.56a75.42,75.42,0,0,0-5-10.61C281,486.06,275.78,483.85,273.18,475.87Z" fill="#fffaf1" stroke="#4d4d4d" stroke-miterlimit="10"/>
    <path d="M234.38,146.45q-2.16-31.78-4.33-63.57c0-.45-.46-9.17,6.78-14.2A16,16,0,0,1,251.72,67a16.27,16.27,0,0,1,8.17,7.25,16.47,16.47,0,0,1,1.95,8.65q-2.89,32.5-5.78,65v4.34H234.38Z" fill="#42210b"/>
    <path d="M260.39,84.32q-2.88,32.5-5.78,65v4.33H244.5V67.33a16.07,16.07,0,0,1,15.89,17Z" fill="#a67c52" opacity="0.54"/>
    <path d="M240.16,70.22v86.34h11.56v-5.78q2.17-31.78,4.34-63.57c0-.45.46-9.17-6.78-14.19A15.66,15.66,0,0,0,240.16,70.22Z" fill="#42210b"/>
    <rect x="240.16" y="225.91" width="11.56" height="43.34" fill="#4d4d4d"/>
    <rect x="243.05" y="225.91" width="8.67" height="43.34" fill="gray"/>
    <rect x="245.94" y="225.91" width="4.33" height="43.34" fill="#999"/>
    <circle cx="245.94" cy="192.68" r="43.34" fill="#b3b3b3"/>
    <circle cx="246.66" cy="193.4" r="43.34" fill="none" stroke="#4d4d4d" stroke-miterlimit="10" stroke-width="3"/>
    <circle cx="239.14" cy="372.42" r="4" fill="#f2f2f2" opacity="0.62"/>
    <circle cx="263.24" cy="285.82" r="2.61" fill="#f2f2f2" opacity="0.62"/>
    <circle cx="230.14" cy="380.42" r="2" fill="#f2f2f2" opacity="0.62"/>
    <circle cx="229.64" cy="363.92" r="2.5" fill="#f2f2f2" opacity="0.62"/>
    <circle cx="269.69" cy="279.94" r="1.48" fill="#f2f2f2" opacity="0.62"/>
    <circle cx="262.14" cy="414.42" r="2" fill="#f2f2f2" opacity="0.62"/>
    <image width="340" height="321" transform="translate(198 147) scale(0.29 0.29)" xlink:href="../../FairyTale%20Ale.png"/>
  </g>
</svg>
