<svg xmlns="http://www.w3.org/2000/svg" viewBox="0 0 88 243">
  <g id="Bottle4">
    <path d="M80,241.65c-1,2.43-9.65.7-16.35-.65-13.42-2.7-14.08-5.12-20.85-5-7,.13-7.45,2.75-19.91,5-5.44,1-14.12,2.55-15.16,0C6.53,238.13,16,232.48,19,221.31c.22-.83.39-1.57.41-1.68.44-2.43.32-5.62-.41-15.11-1.17-15.16-1.75-22.73-2.52-28C12.11,146.42,7.58,104,6.43,94-2.61,15.11,5.4,8.52,8.65,7,15.76,3.68,22.93,14.07,38,10c7.49-2,9.35-5.56,18-7,6.23-1,15-.82,19.91,2,4.61,2.63,12.93,11.49,4.31,88.3-2,17.54-6.58,57.93-10.24,82.54-.78,5.26-1.37,12.83-2.57,28-.94,11.76-.9,13.83,0,16.8C70.64,231.84,81.2,238.71,80,241.65Z" fill="#6d0d02" opacity="0.81"/>
  </g>
</svg>
