<svg xmlns="http://www.w3.org/2000/svg" xmlns:xlink="http://www.w3.org/1999/xlink" viewBox="0 0 495 619">
  <g id="Tap4">
    <path d="M505,624H-8q.25-196.75.5-393.5l512-1Q504.76,426.75,505,624ZM277.18,477.75c-1-3.06-1-5.2,0-17.33,1.37-15.65,2-23.47,2.95-28.9,3.71-22.64,8.23-57.92,11.73-85.21,8.51-66.52,5.23-85-5.58-99.71a63.4,63.4,0,0,0-13-13c-8.44-.26-25.29.1-25.29.1l-22,.62a63,63,0,0,0-13,13C202.26,262,198.94,280.45,207.32,347c3.44,27.3,7.89,62.6,11.56,85.24.88,5.43,1.54,13.25,2.89,28.89,1,12.14,1,14.29,0,17.34-2.62,8-7.85,10.17-14.45,21.67a79.52,79.52,0,0,0-5.06,10.59v4.58h49.13l45.22-.68v-4.56a75.42,75.42,0,0,0-5-10.61C285,487.94,279.78,485.73,277.18,477.75Z" fill="#fffaf1" stroke="#4d4d4d" stroke-miterlimit="10"/>
    <path d="M238.38,148.33q-2.16-31.79-4.33-63.57c0-.45-.46-9.17,6.78-14.19a16,16,0,0,1,14.89-1.71,16.12,16.12,0,0,1,10.11,15.9q-2.88,32.51-5.77,65v4.34H238.38Z" fill="#42210b"/>
    <path d="M264.39,86.2q-2.88,32.51-5.78,65v4.33H248.5V69.21a16.07,16.07,0,0,1,15.89,17Z" fill="#a67c52" opacity="0.54"/>
    <path d="M244.16,72.1v86.34h11.56v-5.78q2.18-31.78,4.34-63.57c0-.45.46-9.17-6.78-14.19A15.66,15.66,0,0,0,244.16,72.1Z" fill="#42210b"/>
    <rect x="244.16" y="227.79" width="11.56" height="43.34" fill="#4d4d4d"/>
    <rect x="247.05" y="227.79" width="8.67" height="43.34" fill="gray"/>
    <rect x="249.94" y="227.79" width="4.33" height="43.34" fill="#999"/>
    <circle cx="249.94" cy="194.56" r="43.34" fill="#b3b3b3"/>
    <circle cx="250.66" cy="195.28" r="43.34" fill="none" stroke="#4d4d4d" stroke-miterlimit="10" stroke-width="3"/>
    <circle cx="243.14" cy="374.3" r="4" fill="#f2f2f2" opacity="0.62"/>
    <circle cx="267.24" cy="287.7" r="2.61" fill="#f2f2f2" opacity="0.62"/>
    <circle cx="234.14" cy="382.3" r="2" fill="#f2f2f2" opacity="0.62"/>
    <circle cx="233.64" cy="365.8" r="2.5" fill="#f2f2f2" opacity="0.62"/>
    <circle cx="273.69" cy="281.82" r="1.48" fill="#f2f2f2" opacity="0.62"/>
    <circle cx="266.14" cy="416.3" r="2" fill="#f2f2f2" opacity="0.62"/>
    <image width="340" height="321" transform="translate(200 147) scale(0.3)" xlink:href="../../Hollaback.png"/>
  </g>
</svg>
