<svg xmlns="http://www.w3.org/2000/svg" xmlns:xlink="http://www.w3.org/1999/xlink" viewBox="0 0 495 619">
  <g id="Tap9">
    <path d="M502,628H-9q1.76-198.25,3.5-396.5l510-8Q503.26,425.75,502,628ZM280.74,476.75c-1-3.06-1-5.2,0-17.33,1.37-15.65,2.05-23.47,3-28.9,3.71-22.64,8.23-57.92,11.73-85.21,8.51-66.52,5.23-85-5.58-99.71a63.4,63.4,0,0,0-13-13c-8.44-.26-25.28.1-25.28.1l-22,.62a63,63,0,0,0-13,13C205.83,261,202.5,279.45,210.88,346c3.44,27.3,7.89,62.6,11.56,85.24.88,5.43,1.55,13.25,2.89,28.89,1,12.14,1,14.29,0,17.34-2.61,8-7.84,10.17-14.45,21.67a78,78,0,0,0-5,10.59v4.58H255l45.22-.68v-4.56a75.42,75.42,0,0,0-5-10.61C288.57,486.94,283.34,484.73,280.74,476.75Z" fill="#fffaf1" stroke="#4d4d4d" stroke-miterlimit="10"/>
    <path d="M242,147.33q-2.17-31.79-4.34-63.57c0-.45-.46-9.17,6.78-14.19a16,16,0,0,1,14.89-1.71,16.15,16.15,0,0,1,10.12,15.9q-2.89,32.51-5.78,65v4.34H242Z" fill="#42210b"/>
    <path d="M268,85.2q-2.88,32.51-5.78,65v4.33H252.06V68.21A16.07,16.07,0,0,1,268,85.2Z" fill="#a67c52" opacity="0.54"/>
    <path d="M247.72,71.1v86.34h11.56v-5.78q2.18-31.78,4.34-63.57c0-.45.46-9.17-6.78-14.19A15.66,15.66,0,0,0,247.72,71.1Z" fill="#42210b"/>
    <rect x="247.72" y="226.79" width="11.56" height="43.34" fill="#4d4d4d"/>
    <rect x="250.61" y="226.79" width="8.67" height="43.34" fill="gray"/>
    <rect x="253.5" y="226.79" width="4.33" height="43.34" fill="#999"/>
    <circle cx="253.5" cy="193.56" r="43.34" fill="#b3b3b3"/>
    <circle cx="254.23" cy="194.28" r="43.34" fill="none" stroke="#4d4d4d" stroke-miterlimit="10" stroke-width="3"/>
    <circle cx="246.7" cy="373.3" r="4" fill="#f2f2f2" opacity="0.62"/>
    <circle cx="270.8" cy="286.7" r="2.61" fill="#f2f2f2" opacity="0.62"/>
    <circle cx="237.7" cy="381.3" r="2" fill="#f2f2f2" opacity="0.62"/>
    <circle cx="237.2" cy="364.8" r="2.5" fill="#f2f2f2" opacity="0.62"/>
    <circle cx="277.25" cy="280.82" r="1.48" fill="#f2f2f2" opacity="0.62"/>
    <circle cx="269.7" cy="415.3" r="2" fill="#f2f2f2" opacity="0.62"/>
    <image width="340" height="321" transform="translate(204 146.59) scale(0.29)" xlink:href="../../Sleighride.png"/>
  </g>
</svg>
