<svg xmlns="http://www.w3.org/2000/svg" xmlns:xlink="http://www.w3.org/1999/xlink" viewBox="0 0 495 619">
  <g id="Tap7">
    <path d="M505,624H-6q.25-196.24.5-392.5l511-4Q505.25,425.76,505,624ZM266.74,479.75c-1-3.06-1-5.2,0-17.33,1.37-15.65,2.05-23.47,3-28.9,3.71-22.64,8.23-57.92,11.73-85.21,8.51-66.52,5.23-85-5.58-99.71a63.4,63.4,0,0,0-13-13c-8.44-.26-25.28.1-25.28.1l-22,.62a63,63,0,0,0-13,13C191.83,264,188.5,282.45,196.88,349c3.44,27.3,7.89,62.6,11.56,85.24.88,5.43,1.55,13.25,2.89,28.89,1,12.14,1,14.29,0,17.34-2.61,8-7.84,10.17-14.45,21.67a78,78,0,0,0-5,10.59v4.58H241l45.22-.68v-4.56a75.42,75.42,0,0,0-5-10.61C274.57,489.94,269.34,487.73,266.74,479.75Z" fill="#fffaf1" stroke="#4d4d4d" stroke-miterlimit="10"/>
    <path d="M228,150.33q-2.17-31.79-4.34-63.57c0-.45-.46-9.17,6.78-14.19a16,16,0,0,1,14.89-1.71,16.15,16.15,0,0,1,10.12,15.9q-2.9,32.51-5.78,65v4.34H228Z" fill="#42210b"/>
    <path d="M254,88.2q-2.88,32.51-5.78,65v4.33H238.06V71.21A16.07,16.07,0,0,1,254,88.2Z" fill="#a67c52" opacity="0.54"/>
    <path d="M233.72,74.1v86.34h11.56v-5.78q2.17-31.78,4.34-63.57c0-.45.46-9.17-6.78-14.19A15.66,15.66,0,0,0,233.72,74.1Z" fill="#42210b"/>
    <rect x="233.72" y="229.79" width="11.56" height="43.34" fill="#4d4d4d"/>
    <rect x="236.61" y="229.79" width="8.67" height="43.34" fill="gray"/>
    <rect x="239.5" y="229.79" width="4.33" height="43.34" fill="#999"/>
    <circle cx="239.5" cy="196.56" r="43.34" fill="#b3b3b3"/>
    <circle cx="240.23" cy="197.28" r="43.34" fill="none" stroke="#4d4d4d" stroke-miterlimit="10" stroke-width="3"/>
    <circle cx="232.7" cy="376.3" r="4" fill="#f2f2f2" opacity="0.62"/>
    <circle cx="256.8" cy="289.7" r="2.61" fill="#f2f2f2" opacity="0.62"/>
    <circle cx="223.7" cy="384.3" r="2" fill="#f2f2f2" opacity="0.62"/>
    <circle cx="223.2" cy="367.8" r="2.5" fill="#f2f2f2" opacity="0.62"/>
    <circle cx="263.25" cy="283.82" r="1.48" fill="#f2f2f2" opacity="0.62"/>
    <circle cx="255.7" cy="418.3" r="2" fill="#f2f2f2" opacity="0.62"/>
    <image width="340" height="321" transform="translate(189 150.22) scale(0.3)" xlink:href="../../Row2.6.png"/>
  </g>
</svg>
