<svg xmlns="http://www.w3.org/2000/svg" xmlns:xlink="http://www.w3.org/1999/xlink" viewBox="0 0 495 619">
  <g id="Tap3">
    <path d="M507,630H-7L.5,231.5l501-2Q504.25,429.75,507,630ZM277.82,477.87c-1-3.06-1-5.2,0-17.33,1.37-15.65,2.05-23.47,2.95-28.9,3.71-22.64,8.23-57.92,11.73-85.21,8.51-66.52,5.23-85-5.58-99.71a63.14,63.14,0,0,0-13-13c-8.44-.26-25.29.1-25.29.1l-22,.62a63,63,0,0,0-13,13c-10.84,14.67-14.16,33.15-5.78,99.69,3.44,27.3,7.89,62.6,11.56,85.24.88,5.43,1.54,13.25,2.89,28.89,1,12.14,1,14.29,0,17.34-2.62,8-7.85,10.17-14.45,21.67a78.27,78.27,0,0,0-5.06,10.59v4.58H252l45.22-.68v-4.56a76.58,76.58,0,0,0-5-10.61C285.65,488.06,280.42,485.85,277.82,477.87Z" fill="#fffaf1" stroke="#4d4d4d" stroke-miterlimit="10"/>
    <path d="M239,148.45q-2.16-31.78-4.33-63.57c0-.45-.46-9.17,6.77-14.2a16,16,0,0,1,14.9-1.7,16.12,16.12,0,0,1,10.11,15.9q-2.88,32.5-5.78,65v4.34H239Z" fill="#42210b"/>
    <path d="M265,86.32q-2.88,32.5-5.78,65v4.33H249.14V69.33a16.07,16.07,0,0,1,15.89,17Z" fill="#a67c52" opacity="0.54"/>
    <path d="M244.8,72.22v86.34h11.56v-5.78q2.16-31.78,4.33-63.57c0-.45.47-9.17-6.77-14.19A15.66,15.66,0,0,0,244.8,72.22Z" fill="#42210b"/>
    <rect x="244.8" y="227.91" width="11.56" height="43.34" fill="#4d4d4d"/>
    <rect x="247.69" y="227.91" width="8.67" height="43.34" fill="gray"/>
    <rect x="250.58" y="227.91" width="4.33" height="43.34" fill="#999"/>
    <circle cx="250.58" cy="194.68" r="43.34" fill="#b3b3b3"/>
    <circle cx="251.3" cy="195.4" r="43.34" fill="none" stroke="#4d4d4d" stroke-miterlimit="10" stroke-width="3"/>
    <circle cx="243.78" cy="374.42" r="4" fill="#f2f2f2" opacity="0.62"/>
    <circle cx="267.88" cy="287.82" r="2.61" fill="#f2f2f2" opacity="0.62"/>
    <circle cx="234.78" cy="382.42" r="2" fill="#f2f2f2" opacity="0.62"/>
    <circle cx="234.28" cy="365.92" r="2.5" fill="#f2f2f2" opacity="0.62"/>
    <circle cx="274.33" cy="281.94" r="1.48" fill="#f2f2f2" opacity="0.62"/>
    <circle cx="266.78" cy="416.42" r="2" fill="#f2f2f2" opacity="0.62"/>
    <image width="340" height="321" transform="translate(201.64 149) scale(0.29 0.29)" xlink:href="../../Githop.png"/>
  </g>
</svg>
