<svg xmlns="http://www.w3.org/2000/svg" xmlns:xlink="http://www.w3.org/1999/xlink" viewBox="0 0 480 619">
  <g id="Bottle4">
    <circle cx="121.1" cy="238.39" r="2.61" fill="#f2f2f2" opacity="0.62"/>
    <circle cx="127.55" cy="232.52" r="1.48" fill="#f2f2f2" opacity="0.62"/>
    <circle cx="120" cy="367" r="2" fill="#f2f2f2" opacity="0.62"/>
  </g>
  <g id="Tap1">
    <path d="M480,619H0L.5,231.5h480ZM264.56,476.25c-1-3.06-1-5.2,0-17.33,1.37-15.65,2-23.47,2.95-28.9,3.71-22.64,8.23-57.92,11.73-85.21,8.51-66.52,5.23-85-5.58-99.71a63.4,63.4,0,0,0-13-13c-8.44-.26-25.29.1-25.29.1l-22,.62a63,63,0,0,0-13,13c-10.84,14.67-14.16,33.15-5.78,99.69,3.44,27.3,7.89,62.6,11.56,85.24.88,5.43,1.54,13.25,2.89,28.89,1,12.14,1,14.29,0,17.34-2.62,8-7.85,10.17-14.45,21.67a79.52,79.52,0,0,0-5.06,10.59v4.58h49.13l45.22-.68v-4.56A75.42,75.42,0,0,0,279,498C272.39,486.44,267.16,484.23,264.56,476.25Z" fill="#fffaf1" stroke="#4d4d4d" stroke-miterlimit="10"/>
    <circle cx="230.52" cy="372.8" r="4" fill="#f2f2f2" opacity="0.62"/>
    <circle cx="254.62" cy="286.2" r="2.61" fill="#f2f2f2" opacity="0.62"/>
    <circle cx="221.52" cy="380.8" r="2" fill="#f2f2f2" opacity="0.62"/>
    <circle cx="221.02" cy="364.3" r="2.5" fill="#f2f2f2" opacity="0.62"/>
    <circle cx="261.07" cy="280.32" r="1.48" fill="#f2f2f2" opacity="0.62"/>
    <circle cx="253.52" cy="414.8" r="2" fill="#f2f2f2" opacity="0.62"/>
    <g>
      <path d="M225.76,146.83Q223.6,115,221.43,83.26c0-.45-.46-9.17,6.78-14.19a16,16,0,0,1,14.89-1.71,16.12,16.12,0,0,1,10.11,15.9q-2.88,32.51-5.77,65v4.34H225.76Z" fill="#42210b"/>
      <path d="M251.77,84.7q-2.88,32.51-5.78,65v4.33H235.88V67.71a16.07,16.07,0,0,1,15.89,17Z" fill="#a67c52" opacity="0.54"/>
      <path d="M231.54,70.6v86.34H243.1v-5.78q2.18-31.78,4.34-63.57c0-.45.46-9.17-6.78-14.19A15.66,15.66,0,0,0,231.54,70.6Z" fill="#42210b"/>
      <rect x="231.54" y="226.29" width="11.56" height="43.34" fill="#4d4d4d"/>
      <rect x="234.43" y="226.29" width="8.67" height="43.34" fill="gray"/>
      <rect x="237.32" y="226.29" width="4.33" height="43.34" fill="#999"/>
      <circle cx="238.04" cy="193.78" r="43.34" fill="none" stroke="#4d4d4d" stroke-miterlimit="10" stroke-width="3"/>
      <image width="340" height="321" transform="translate(188.2 147) scale(0.29 0.29)" xlink:href="../../ElHefe.png"/>
    </g>
  </g>
</svg>
