<svg xmlns="http://www.w3.org/2000/svg" xmlns:xlink="http://www.w3.org/1999/xlink" viewBox="0 0 495 619">
  <g id="Tap10">
    <path d="M503,628H-7q.25-198.25.5-396.5l510-8Q503.25,425.75,503,628ZM278.74,477.75c-1-3.06-1-5.2,0-17.33,1.37-15.65,2.05-23.47,3-28.9,3.71-22.64,8.23-57.92,11.73-85.21,8.51-66.52,5.23-85-5.58-99.71a63.4,63.4,0,0,0-13-13c-8.44-.26-25.28.1-25.28.1l-22,.62a63,63,0,0,0-13,13C203.83,262,200.5,280.45,208.88,347c3.44,27.3,7.89,62.6,11.56,85.24.88,5.43,1.55,13.25,2.89,28.89,1,12.14,1,14.29,0,17.34-2.61,8-7.84,10.17-14.45,21.67a78,78,0,0,0-5,10.59v4.58H253l45.22-.68v-4.56a75.42,75.42,0,0,0-5-10.61C286.57,487.94,281.34,485.73,278.74,477.75Z" fill="#fffaf1" stroke="#4d4d4d" stroke-miterlimit="10"/>
    <path d="M240,148.33q-2.17-31.79-4.34-63.57c0-.45-.46-9.17,6.78-14.19a16,16,0,0,1,14.89-1.71,16.15,16.15,0,0,1,10.12,15.9q-2.89,32.51-5.78,65v4.34H240Z" fill="#42210b"/>
    <path d="M266,86.2q-2.88,32.51-5.78,65v4.33H250.06V69.21A16.07,16.07,0,0,1,266,86.2Z" fill="#a67c52" opacity="0.54"/>
    <path d="M245.72,72.1v86.34h11.56v-5.78q2.18-31.78,4.34-63.57c0-.45.46-9.17-6.78-14.19A15.66,15.66,0,0,0,245.72,72.1Z" fill="#42210b"/>
    <rect x="245.72" y="227.79" width="11.56" height="43.34" fill="#4d4d4d"/>
    <rect x="248.61" y="227.79" width="8.67" height="43.34" fill="gray"/>
    <rect x="251.5" y="227.79" width="4.33" height="43.34" fill="#999"/>
    <circle cx="251.5" cy="194.56" r="43.34" fill="#b3b3b3"/>
    <circle cx="252.23" cy="195.28" r="43.34" fill="none" stroke="#4d4d4d" stroke-miterlimit="10" stroke-width="3"/>
    <circle cx="244.7" cy="374.3" r="4" fill="#f2f2f2" opacity="0.62"/>
    <circle cx="268.8" cy="287.7" r="2.61" fill="#f2f2f2" opacity="0.62"/>
    <circle cx="235.7" cy="382.3" r="2" fill="#f2f2f2" opacity="0.62"/>
    <circle cx="235.2" cy="365.8" r="2.5" fill="#f2f2f2" opacity="0.62"/>
    <circle cx="275.25" cy="281.82" r="1.48" fill="#f2f2f2" opacity="0.62"/>
    <circle cx="267.7" cy="416.3" r="2" fill="#f2f2f2" opacity="0.62"/>
    <image width="340" height="321" transform="translate(201.47 147) scale(0.3)" xlink:href="../../Steampunk.png"/>
  </g>
</svg>
